<svg id="Layer_1" data-name="Layer 1" xmlns="http://www.w3.org/2000/svg" xmlns:xlink="http://www.w3.org/1999/xlink" viewBox="0 0 119 65"><defs><style>.cls-1{fill:#fff;}.cls-2{fill:#470f5e;}.cls-3{fill:url(#linear-gradient);}.cls-4{fill:url(#linear-gradient-2);}.cls-5{fill:url(#linear-gradient-3);}.cls-6{fill:#8016a5;}.cls-7{fill:url(#linear-gradient-4);}.cls-8{fill:url(#linear-gradient-5);}.cls-9{fill:url(#linear-gradient-6);}.cls-10{fill:url(#linear-gradient-7);}.cls-11{fill:url(#linear-gradient-8);}.cls-12{fill:url(#linear-gradient-9);}.cls-13{fill:#b133e5;}</style><linearGradient id="linear-gradient" x1="25.5" y1="44.32" x2="21.02" y2="44.32" gradientUnits="userSpaceOnUse"><stop offset="0" stop-color="#841bae"/><stop offset="1" stop-color="#16041b"/></linearGradient><linearGradient id="linear-gradient-2" x1="44.84" y1="27.32" x2="30.88" y2="27.32" xlink:href="#linear-gradient"/><linearGradient id="linear-gradient-3" x1="37.7" y1="35.59" x2="26.18" y2="35.59" xlink:href="#linear-gradient"/><linearGradient id="linear-gradient-4" x1="23.25" y1="44.24" x2="23.25" y2="38.84" xlink:href="#linear-gradient"/><linearGradient id="linear-gradient-5" x1="27.47" y1="36.06" x2="27.47" y2="31.82" xlink:href="#linear-gradient"/><linearGradient id="linear-gradient-6" x1="25.42" y1="38.24" x2="21.6" y2="38.24" xlink:href="#linear-gradient"/><linearGradient id="linear-gradient-7" x1="29.2" y1="30.62" x2="20.22" y2="30.62" xlink:href="#linear-gradient"/><linearGradient id="linear-gradient-8" x1="31.83" y1="27.85" x2="31.83" y2="24.33" xlink:href="#linear-gradient"/><linearGradient id="linear-gradient-9" x1="26.78" y1="24.41" x2="26.78" y2="20.89" xlink:href="#linear-gradient"/></defs><path class="cls-1" d="M60,18l-2.25,4.15a17.21,17.21,0,0,1-7,6.73l-.84,1.54c-2.54,4.68-8.27,8.35-13,8.35H35.07l-1.65,3A10.44,10.44,0,0,1,25,47H17.21l4-7.2h0l-9.86-5.29H24.13l.69-1.23-4.65-1.57L3.92,26.25H28.71l.17-.29-8.61-2.47L1,18Z"/><path class="cls-2" d="M54.32,21.26A14.41,14.41,0,0,1,48.2,27l-.31.15h.23c-.12.05-.24.08-.36.12l-.93.31-.53.17,0,0h0a8.45,8.45,0,0,1-2.48.4H30.17l1.91-3.44L22.6,22l-2.52-.72,1.41-.47,1.63.47Z"/><path class="cls-2" d="M23,37.33l-1.4.47,2.52,1.36L21,44.68h3.06a5.4,5.4,0,0,0,1.54-.26l.11,0L27,44H26.7A8,8,0,0,0,30,40.86l1.68-3.06H23.82Z"/><path class="cls-2" d="M21.51,29.06l-1.41.47h0l7.84,2.64L25.6,36.41H35.86a8.34,8.34,0,0,0,1.76-.2h0l.71-.19h0l.67-.22,1.33-.45.29-.1-.27,0-.18,0,.2-.1a14.41,14.41,0,0,0,6-5.66H22.9Z"/><path class="cls-3" d="M27,44l-1.24.42-.11,0a5.4,5.4,0,0,1-1.54.26H21l1.4-.47,2.8-.25Z"/><path class="cls-4" d="M48.26,26.64s0,.14-.06.34c0,0,0,.08,0,.13l-.06,0c-.12.05-.24.08-.36.12l-.93.31-.53.17,0,0h0a8.45,8.45,0,0,1-2.48.4H30.17l1.41-.47L45.1,26.5l-.11.42L45,27Z"/><path class="cls-5" d="M40.52,34.77l-.11.42,0,.08,0,.07L39,35.79l-.67.22h0l-.71.19h0a8.34,8.34,0,0,1-1.76.2H25.6l1.4-.47Z"/><path class="cls-6" d="M55.73,20.79a14.46,14.46,0,0,1-7.55,6.32l-.06,0c-.12.05-.24.08-.36.12a8.73,8.73,0,0,1-2.56.42H31.58l1.9-3.44-10.36-3-1.63-.47Z"/><path class="cls-6" d="M47.85,29.06H21.51l7.84,2.64L27,35.94H37.27C41,35.94,45.78,32.86,47.85,29.06Z"/><path class="cls-6" d="M26.23,37.33H23l2.53,1.36-3.06,5.52h3.06a7.63,7.63,0,0,0,5.91-3.81l1.69-3.07H26.23Z"/><polygon class="cls-7" points="22.42 44.21 21.02 44.68 24.07 39.16 25.48 38.69 22.42 44.21"/><polygon class="cls-8" points="27 35.94 25.59 36.41 27.94 32.17 29.35 31.7 27 35.94"/><polygon class="cls-9" points="21.55 37.8 22.95 37.33 25.48 38.69 24.07 39.16 21.55 37.8"/><polygon class="cls-10" points="20.1 29.53 21.51 29.06 29.35 31.7 27.94 32.17 20.1 29.53"/><polygon class="cls-11" points="31.58 27.67 30.18 28.14 32.08 24.7 33.48 24.23 31.58 27.67"/><polygon class="cls-12" points="33.48 24.23 32.08 24.7 20.08 21.26 21.49 20.79 33.48 24.23"/><path class="cls-13" d="M31.93,27.5l2-3.45L21.49,20.79c2,.62,11,3.17,12,3.44l-1.9,3.44s4.89,0,5.87,0Z"/><path class="cls-13" d="M27.32,35.75l2.46-4.23-8.27-2.46c1.29.49,7.22,2.44,7.84,2.64L27,35.94h7.46Z"/><path class="cls-13" d="M23,37.33c.4.28,2.35,1.27,2.53,1.36l-3.06,5.52s2.44,0,2.93,0L22.74,44l3-5.42S23.4,37.51,23,37.33Z"/><path class="cls-1" d="M67.74,21.83,67,25.71h7.78L74,29.56H66.2L65,35.61H60L63.53,18h13.8l-.78,3.85Z"/><path class="cls-1" d="M92.8,22,90.08,35.61H85.54l.28-1.29a5.75,5.75,0,0,1-8.92-1.38,6.67,6.67,0,0,1-.8-3.33,8.19,8.19,0,0,1,1-4,7.53,7.53,0,0,1,2.7-2.84,7.08,7.08,0,0,1,3.71-1c2,0,3.38.62,4.18,1.87L88,22Zm-6.93,9a4.08,4.08,0,0,0,.91-2.74,2.61,2.61,0,0,0-.7-1.92,2.57,2.57,0,0,0-1.9-.7,2.93,2.93,0,0,0-2.34,1.06,4.13,4.13,0,0,0-.91,2.77A2.4,2.4,0,0,0,83.53,32,2.93,2.93,0,0,0,85.87,30.92Z"/><path class="cls-1" d="M95.1,35.46a8.06,8.06,0,0,1-2.53-1l1.74-3.35a8.12,8.12,0,0,0,2.21.92,9.72,9.72,0,0,0,2.52.34c1.46,0,2.19-.33,2.19-1,0-.27-.17-.47-.51-.59a9.53,9.53,0,0,0-1.65-.37,18.68,18.68,0,0,1-2.48-.59,4.07,4.07,0,0,1-1.7-1.07,2.93,2.93,0,0,1-.74-2.12,4.11,4.11,0,0,1,2-3.66,9.54,9.54,0,0,1,5.25-1.3,13.62,13.62,0,0,1,2.82.29,10,10,0,0,1,2.37.79l-1.69,3.35a7.76,7.76,0,0,0-4.05-1,3.66,3.66,0,0,0-1.65.29.85.85,0,0,0-.54.74q0,.4.51.6a13.31,13.31,0,0,0,1.7.41,16.18,16.18,0,0,1,2.43.58A4.16,4.16,0,0,1,105,28.83a2.9,2.9,0,0,1,.72,2.07,4.08,4.08,0,0,1-2,3.65,9.6,9.6,0,0,1-5.21,1.28A15,15,0,0,1,95.1,35.46Z"/><path class="cls-1" d="M113.27,30.52c0,.24,0,.39,0,.45,0,.78.42,1.16,1.26,1.16a3,3,0,0,0,1.43-.4l.61,3.3a7.06,7.06,0,0,1-3.55.8,5.09,5.09,0,0,1-3.37-1,3.67,3.67,0,0,1-1.24-3,6.06,6.06,0,0,1,.12-1.28l.91-4.51h-2l.73-3.58h2l.7-3.55h4.79l-.71,3.55H118L117.27,26h-3.09Z"/><path class="cls-1" d="M61.49,46.59a2.89,2.89,0,0,1-1.23-1.11,3.26,3.26,0,0,1-.42-1.67,4.7,4.7,0,0,1,.58-2.32,4.26,4.26,0,0,1,1.63-1.66,4.8,4.8,0,0,1,2.45-.62,4.29,4.29,0,0,1,1.62.29,2.41,2.41,0,0,1,1.1.83l-.57.5a2.7,2.7,0,0,0-2.22-.9,3.86,3.86,0,0,0-2,.52,3.62,3.62,0,0,0-1.33,1.39,4.08,4.08,0,0,0-.47,1.93,2.36,2.36,0,0,0,.74,1.82,3,3,0,0,0,2.1.68,3.31,3.31,0,0,0,2.43-.91l.47.54a3.4,3.4,0,0,1-1.28.8,4.86,4.86,0,0,1-1.68.29A4.26,4.26,0,0,1,61.49,46.59Z"/><path class="cls-1" d="M73.65,41.18,72.5,46.92h-.74L72,46a3,3,0,0,1-1,.71,3.21,3.21,0,0,1-1.25.25,2.74,2.74,0,0,1-1.3-.3,2.12,2.12,0,0,1-.89-.84,2.58,2.58,0,0,1-.31-1.3,3.62,3.62,0,0,1,.42-1.75,3.07,3.07,0,0,1,1.16-1.21,3.13,3.13,0,0,1,1.66-.45,2.69,2.69,0,0,1,1.38.33,1.8,1.8,0,0,1,.8.92l.24-1.2Zm-2.5,4.76A2.3,2.3,0,0,0,72,45a3,3,0,0,0,.32-1.38,1.72,1.72,0,0,0-.5-1.31,1.91,1.91,0,0,0-1.39-.48,2.39,2.39,0,0,0-2.17,1.32A3,3,0,0,0,68,44.51a1.72,1.72,0,0,0,.5,1.31,2,2,0,0,0,1.39.47A2.44,2.44,0,0,0,71.15,45.94Z"/><path class="cls-1" d="M77.31,41.4a3.27,3.27,0,0,1,1.4-.27l-.15.76h-.21a2.19,2.19,0,0,0-1.53.53A2.8,2.8,0,0,0,76,44l-.58,2.91h-.78l1.14-5.74h.74l-.19,1A2.26,2.26,0,0,1,77.31,41.4Z"/><path class="cls-1" d="M88.46,43.36a3.06,3.06,0,0,1-1.73,1l1.45,2.55H87.3l-1.37-2.43H83.36l-.48,2.42h-.81l1.53-7.64h2.75a3.24,3.24,0,0,1,2,.56,2,2,0,0,1,.71,1.6A2.88,2.88,0,0,1,88.46,43.36Zm-.89-.14a2.07,2.07,0,0,0,.7-1.7,1.35,1.35,0,0,0-.51-1.15A2.37,2.37,0,0,0,86.3,40h-2l-.77,3.82h2.06A3.08,3.08,0,0,0,87.57,43.22Z"/><path class="cls-1" d="M90.52,44.27s0,.13,0,.23a1.73,1.73,0,0,0,.5,1.33,2.08,2.08,0,0,0,1.48.46,2.85,2.85,0,0,0,1.06-.19,2.2,2.2,0,0,0,.82-.53l.35.56a2.92,2.92,0,0,1-1,.62,3.69,3.69,0,0,1-1.29.23,2.78,2.78,0,0,1-2-.66,2.33,2.33,0,0,1-.71-1.79,3.6,3.6,0,0,1,.41-1.74,3.08,3.08,0,0,1,2.77-1.66,2.53,2.53,0,0,1,1.82.65,2.38,2.38,0,0,1,.68,1.79,3.76,3.76,0,0,1-.08.7Zm.91-2a2.59,2.59,0,0,0-.83,1.39h4.1s0-.12,0-.21a1.6,1.6,0,0,0-.5-1.25,1.89,1.89,0,0,0-1.31-.44A2.23,2.23,0,0,0,91.43,42.3Z"/><path class="cls-1" d="M101.85,41.63A1.74,1.74,0,0,1,102.4,43a4,4,0,0,1-.07.66l-.66,3.26h-.77l.65-3.27a2.86,2.86,0,0,0,.06-.53,1.21,1.21,0,0,0-.38-.95,1.59,1.59,0,0,0-1.11-.34,2.28,2.28,0,0,0-1.53.51,2.54,2.54,0,0,0-.8,1.5l-.62,3.08H96.4l1.13-5.74h.75l-.19.91a2.81,2.81,0,0,1,2.25-1A2.15,2.15,0,0,1,101.85,41.63Z"/><path class="cls-1" d="M105,45.19a2.64,2.64,0,0,0-.05.36c0,.51.28.76.83.76a1.48,1.48,0,0,0,.89-.29l.19.59a2.13,2.13,0,0,1-1.28.37,1.45,1.45,0,0,1-1-.35,1.24,1.24,0,0,1-.38-1,2.15,2.15,0,0,1,0-.45l.67-3.39h-1l.12-.65h1l.25-1.26h.78l-.25,1.26h1.74l-.13.65H105.7Z"/><path class="cls-1" d="M114.41,41.18l-1.15,5.74h-.74l.19-.9a3,3,0,0,1-1,.71,3.17,3.17,0,0,1-1.25.25,2.74,2.74,0,0,1-1.3-.3,2.12,2.12,0,0,1-.89-.84,2.58,2.58,0,0,1-.31-1.3,3.62,3.62,0,0,1,.42-1.75,3.07,3.07,0,0,1,1.16-1.21,3.13,3.13,0,0,1,1.66-.45,2.69,2.69,0,0,1,1.38.33,1.8,1.8,0,0,1,.8.92l.24-1.2Zm-2.5,4.76a2.3,2.3,0,0,0,.89-1,3,3,0,0,0,.32-1.38,1.72,1.72,0,0,0-.5-1.31,1.91,1.91,0,0,0-1.39-.48,2.39,2.39,0,0,0-2.17,1.32,3,3,0,0,0-.32,1.38,1.72,1.72,0,0,0,.5,1.31,2,2,0,0,0,1.39.47A2.44,2.44,0,0,0,111.91,45.94Z"/><path class="cls-1" d="M117,38.82h.78l-1.62,8.1h-.78Z"/></svg>